# xmcd
#
# Track frame offsets: 
#        150
#        19049
#        33049
#        50062
#        64542
#        80313
#        96685
#        117130
#        130503
#        147731
#        159923
#        176568
#
# Disc length: 2610 seconds
#
# Revision: 1
# Processed by: cddbd v1.5.2PL0 Copyright (c) Steve Scherf et al.
# Submitted via: ExactAudioCopyFreeDBPlugin 1.0
#
DISCID=990a300c
DTITLE=Macy Gray - Ruby
DYEAR=2018
DGENRE=R&B
TTITLE0=Buddha (feat. Gary Clark Jr.)
TTITLE1=Cold World
TTITLE2=Over You
TTITLE3=White Man
TTITLE4=Tell Me
TTITLE5=Sugar Daddy
TTITLE6=When It Ends
TTITLE7=Just Like Jenny
TTITLE8=Jealousy
TTITLE9=Shinanigins
TTITLE10=But He Loves Me
TTITLE11=Witness
EXTD=
EXTT0=
EXTT1=
EXTT2=
EXTT3=
EXTT4=
EXTT5=
EXTT6=
EXTT7=
EXTT8=
EXTT9=
EXTT10=
EXTT11=
PLAYORDER=
